<svg width="494" height="380" viewBox="0 0 494 380" fill="none" xmlns="http://www.w3.org/2000/svg">
	<path opacity="0.4" d="M164.301 71.3759C168.412 62.5804 173.627 54.0888 180.174 46.0803C231.622 -16.8577 332.718 -11.5561 391.997 39.178C457.741 95.4435 451.662 190.14 450.318 206.319C445.643 262.605 416.42 354.228 349.202 372.893C317.976 381.564 288.18 371.813 262.184 353.727C241.655 339.442 214.586 340.775 194.991 357.52C187.579 363.854 179.317 369.207 170.138 372.999C149.365 381.581 130.872 379.281 122.862 378.185C60.4228 369.633 -0.570115 298.545 0.00402165 232.075C0.66638 155.801 82.296 97.2961 164.301 71.3759Z" fill="#ec4b54"/>
	<path d="M395.444 172.015V321.974C395.444 322.156 395.436 322.338 395.427 322.53C395.427 322.617 395.419 322.704 395.41 322.79C395.41 322.869 395.402 322.956 395.394 323.042C395.394 323.078 395.385 323.113 395.385 323.146C395.377 323.208 395.367 323.26 395.359 323.311C395.35 323.442 395.324 323.572 395.307 323.702C395.29 323.824 395.263 323.954 395.237 324.076C395.228 324.136 395.21 324.198 395.193 324.258C395.193 324.301 395.185 324.353 395.167 324.397C395.158 324.457 395.14 324.518 395.123 324.579C395.097 324.692 395.063 324.804 395.036 324.909C395.036 324.926 395.028 324.953 395.018 324.969C394.958 325.161 394.905 325.352 394.836 325.534C394.836 325.542 394.836 325.552 394.828 325.56C394.793 325.656 394.758 325.751 394.724 325.839C394.689 325.926 394.654 326.004 394.629 326.083C394.621 326.109 394.602 326.134 394.602 326.153C394.499 326.388 394.394 326.63 394.272 326.857C394.237 326.927 394.193 327.014 394.15 327.092C394.107 327.171 394.063 327.239 394.02 327.318C393.976 327.388 393.941 327.465 393.89 327.535C393.803 327.682 393.708 327.83 393.611 327.969C393.551 328.064 393.489 328.143 393.437 328.229C393.29 328.42 393.15 328.612 392.995 328.794C392.881 328.932 392.769 329.063 392.656 329.184C392.542 329.315 392.422 329.436 392.3 329.558C392.248 329.618 392.187 329.672 392.127 329.732C392.075 329.784 392.023 329.835 391.961 329.879C391.9 329.941 391.831 330.001 391.761 330.061C391.744 330.078 391.718 330.096 391.699 330.113C391.534 330.26 391.361 330.4 391.187 330.53C391.169 330.538 391.152 330.557 391.135 330.574C390.996 330.669 390.856 330.774 390.709 330.869C390.658 330.904 390.614 330.939 390.571 330.964C390.492 331.016 390.414 331.068 390.337 331.113C390.275 331.156 390.215 331.191 390.145 331.226C390.075 331.269 390.006 331.313 389.936 331.348C389.451 331.627 388.938 331.86 388.407 332.051C388.372 332.059 388.347 332.077 388.312 332.086C388.277 332.094 388.234 332.112 388.199 332.121C388.077 332.164 387.955 332.208 387.825 332.243C387.608 332.313 387.391 332.365 387.174 332.416C387.06 332.443 386.948 332.468 386.835 332.495C386.765 332.512 386.688 332.521 386.618 332.53C386.531 332.547 386.436 332.565 386.349 332.582C386.332 332.582 386.322 332.582 386.314 332.59C386.244 332.598 386.175 332.607 386.097 332.617C386.062 332.617 386.027 332.625 385.993 332.625C385.933 332.633 385.863 332.642 385.803 332.65C385.768 332.65 385.733 332.659 385.689 332.659C385.559 332.667 385.42 332.677 385.289 332.685C385.098 332.694 384.906 332.702 384.716 332.702H119.781C119.591 332.702 119.399 332.694 119.209 332.685C119.078 332.677 118.94 332.668 118.809 332.659C118.662 332.65 118.514 332.632 118.367 332.607C118.28 332.598 118.193 332.59 118.115 332.572C117.906 332.545 117.698 332.502 117.499 332.458C117.438 332.45 117.385 332.432 117.325 332.415C117.108 332.363 116.891 332.311 116.674 332.241C116.544 332.198 116.422 332.163 116.3 332.119C115.717 331.919 115.153 331.667 114.614 331.382C114.484 331.303 114.354 331.225 114.223 331.146C114.076 331.059 113.928 330.964 113.789 330.868C112.929 330.285 112.165 329.59 111.504 328.791C111.347 328.609 111.2 328.417 111.061 328.218C110.584 327.557 110.183 326.846 109.871 326.081C109.801 325.908 109.732 325.716 109.662 325.534C109.592 325.352 109.541 325.16 109.48 324.969C109.429 324.778 109.377 324.587 109.333 324.397C109.29 324.215 109.255 324.041 109.22 323.857C109.212 323.832 109.212 323.797 109.203 323.771C109.177 323.597 109.151 323.415 109.133 323.241C109.125 323.233 109.125 323.215 109.125 323.198C109.108 323.059 109.098 322.929 109.09 322.79C109.063 322.522 109.055 322.251 109.055 321.974V172.015C109.055 170.73 109.28 169.496 109.697 168.349C110.358 166.533 111.495 164.943 112.964 163.736C112.983 163.719 113.008 163.701 113.034 163.684L113.59 163.259C115.337 162.017 117.473 161.287 119.784 161.287H384.719C384.979 161.287 385.231 161.296 385.483 161.322C385.527 161.314 385.579 161.322 385.622 161.331C385.866 161.347 386.118 161.374 386.352 161.409C386.403 161.417 386.465 161.426 386.517 161.436C386.725 161.471 386.934 161.514 387.133 161.566C387.185 161.574 387.237 161.583 387.29 161.601C387.542 161.661 387.786 161.731 388.028 161.809C388.253 161.879 388.488 161.966 388.706 162.053C389.018 162.175 389.322 162.322 389.617 162.479C389.782 162.557 389.948 162.644 390.103 162.739C390.382 162.896 390.651 163.07 390.903 163.26C390.911 163.252 390.911 163.26 390.911 163.26L391.467 163.686C391.494 163.704 391.519 163.721 391.537 163.738C391.684 163.851 391.816 163.973 391.946 164.093C392.05 164.18 392.146 164.275 392.241 164.372C392.537 164.659 392.814 164.963 393.076 165.293C393.198 165.441 393.31 165.589 393.415 165.736C393.867 166.352 394.249 167.021 394.553 167.734C394.64 167.926 394.719 168.125 394.797 168.325C394.797 168.334 394.805 168.342 394.805 168.352C394.927 168.672 395.022 169.003 395.109 169.333C395.153 169.499 395.188 169.656 395.223 169.819C395.249 169.95 395.275 170.071 395.293 170.202C395.318 170.332 395.336 170.462 395.353 170.592C395.38 170.749 395.396 170.905 395.405 171.061C395.422 171.192 395.431 171.33 395.431 171.461C395.436 171.643 395.444 171.833 395.444 172.015Z" fill="#ec4b54"/>
	<path d="M394.804 168.35H109.697C110.358 166.534 111.495 164.944 112.964 163.737C112.982 163.721 113.008 163.702 113.034 163.686L113.59 163.26L245.678 62.9904C249.561 60.0371 254.939 60.0371 258.822 62.9904L390.903 163.258C390.911 163.25 390.911 163.258 390.911 163.258L391.467 163.684C391.493 163.702 391.519 163.719 391.537 163.736C391.684 163.849 391.816 163.971 391.946 164.092C392.049 164.178 392.146 164.274 392.241 164.37C392.537 164.657 392.814 164.961 393.076 165.292C393.198 165.439 393.31 165.587 393.415 165.734C393.867 166.35 394.249 167.02 394.553 167.733C394.64 167.924 394.718 168.123 394.797 168.323C394.795 168.332 394.804 168.34 394.804 168.35Z" fill="#ec4b54"/>
	<path d="M374.883 324.897H126.08V99.145C126.08 88.5389 134.678 79.9395 145.286 79.9395H355.677C366.284 79.9395 374.883 88.5375 374.883 99.145V324.897Z" fill="white"/>
	<path d="M341.891 133.704H159.072C156.752 133.704 154.853 131.806 154.853 129.487V127.507C154.853 125.188 156.752 123.289 159.072 123.289H341.891C344.21 123.289 346.108 125.188 346.108 127.507V129.487C346.108 131.806 344.21 133.704 341.891 133.704Z" stroke="#ec4b54" stroke-width="0.877402"/>
	<path d="M341.891 157.83H159.072C156.752 157.83 154.853 155.931 154.853 153.612V151.632C154.853 149.313 156.753 147.413 159.072 147.413H341.891C344.209 147.413 346.108 149.313 346.108 151.632V153.612C346.108 155.931 344.21 157.83 341.891 157.83Z" stroke="#ec4b54" stroke-width="0.877402"/>
	<path d="M341.891 181.957H159.072C156.752 181.957 154.853 180.058 154.853 177.74V175.76C154.853 173.441 156.752 171.542 159.072 171.542H341.891C344.21 171.542 346.108 173.441 346.108 175.76V177.74C346.108 180.059 344.21 181.957 341.891 181.957Z" stroke="#ec4b54" stroke-width="0.877402"/>
	<path d="M341.891 206.084H159.072C156.753 206.084 154.853 204.185 154.853 201.866V199.886C154.853 197.567 156.752 195.668 159.072 195.668H341.891C344.21 195.668 346.108 197.567 346.108 199.886V201.866C346.108 204.185 344.209 206.084 341.891 206.084Z" stroke="#ec4b54" stroke-width="0.877402"/>
	<path d="M341.891 230.211H159.072C156.752 230.211 154.853 228.312 154.853 225.994V224.014C154.853 221.695 156.752 219.796 159.072 219.796H341.891C344.21 219.796 346.108 221.695 346.108 224.014V225.994C346.108 228.311 344.21 230.211 341.891 230.211Z" stroke="#ec4b54" stroke-width="0.877402"/>
	<path d="M252.253 251.018V251.026C251.836 251.478 251.342 251.894 250.776 252.243L120.371 332.703H119.78C118.695 332.703 117.652 332.547 116.67 332.243C116.531 332.199 116.391 332.156 116.261 332.112C114.55 331.521 113.029 330.505 111.839 329.184C111.725 329.062 111.613 328.932 111.5 328.794C111.169 328.403 110.874 327.977 110.605 327.533C110.51 327.386 110.432 327.238 110.345 327.091C110.266 326.934 110.179 326.779 110.111 326.622C109.433 325.214 109.051 323.642 109.051 321.974V172.015C109.051 170.73 109.276 169.496 109.694 168.349C110.354 166.533 111.492 164.943 112.961 163.736C112.979 163.719 113.004 163.701 113.031 163.684L113.586 163.259C115.333 162.017 117.47 161.287 119.78 161.287H122.229L133.68 168.35L239.23 233.479L243.2 235.928L250.776 240.602C251.34 240.949 251.836 241.367 252.253 241.818V241.826C254.607 244.407 254.607 248.447 252.253 251.018Z" fill="#ec4b54"/>
	<path d="M395.441 172.015V321.973C395.441 322.156 395.433 322.338 395.425 322.529C395.425 322.616 395.416 322.703 395.408 322.79C395.408 322.868 395.399 322.955 395.391 323.042C395.391 323.077 395.383 323.112 395.383 323.146C395.374 323.207 395.364 323.259 395.356 323.311C395.348 323.441 395.321 323.571 395.304 323.701C395.287 323.823 395.261 323.954 395.234 324.075C395.234 324.092 395.226 324.119 395.226 324.136C395.217 324.171 395.209 324.214 395.191 324.257C395.191 324.301 395.182 324.353 395.164 324.396C395.156 324.456 395.138 324.518 395.121 324.578C395.094 324.692 395.069 324.795 395.034 324.909C395.034 324.925 395.025 324.952 395.016 324.969C394.964 325.161 394.902 325.351 394.834 325.533C394.834 325.542 394.834 325.551 394.825 325.56C394.79 325.655 394.764 325.742 394.722 325.838C394.695 325.917 394.661 325.995 394.626 326.082C394.618 326.099 394.61 326.125 394.6 326.152C394.496 326.387 394.391 326.63 394.269 326.856C394.234 326.926 394.191 327.013 394.147 327.092C394.104 327.17 394.061 327.239 394.017 327.317C393.974 327.387 393.939 327.464 393.887 327.534C393.8 327.681 393.705 327.83 393.608 327.968C393.548 328.064 393.487 328.142 393.435 328.229C393.288 328.429 393.139 328.611 392.992 328.793C392.879 328.932 392.767 329.062 392.653 329.184C392.54 329.314 392.419 329.436 392.298 329.558C392.246 329.618 392.184 329.671 392.124 329.731C392.072 329.783 392.02 329.835 391.959 329.878C391.897 329.94 391.829 330 391.759 330.06C391.742 330.077 391.715 330.095 391.697 330.112C391.532 330.259 391.358 330.399 391.184 330.53C391.166 330.538 391.149 330.556 391.133 330.573C390.994 330.668 390.854 330.773 390.707 330.868C390.655 330.903 390.612 330.938 390.568 330.964C390.49 331.015 390.411 331.067 390.334 331.112C390.273 331.155 390.213 331.19 390.143 331.225C390.073 331.269 390.004 331.312 389.934 331.347C389.448 331.626 388.935 331.86 388.405 332.05C388.37 332.059 388.335 332.077 388.31 332.085C388.274 332.094 388.231 332.112 388.196 332.12C388.074 332.164 387.952 332.207 387.822 332.242C387.605 332.312 387.388 332.364 387.171 332.416C387.058 332.442 386.946 332.468 386.832 332.494C386.762 332.511 386.685 332.521 386.615 332.529C386.528 332.546 386.433 332.564 386.346 332.581H386.32C386.241 332.589 386.163 332.608 386.094 332.616C386.059 332.616 386.024 332.624 385.991 332.624C385.93 332.633 385.869 332.641 385.8 332.65C385.765 332.65 385.73 332.658 385.687 332.658C385.556 332.666 385.418 332.676 385.286 332.685C385.096 332.693 384.904 332.701 384.713 332.701H384.123L253.718 252.241C253.154 251.894 252.658 251.476 252.25 251.024V251.016C249.888 248.435 249.888 244.413 252.25 241.824V241.816C252.659 241.365 253.154 240.947 253.718 240.6L261.284 235.926L265.254 233.477L370.812 168.348L382.261 161.285H384.711C384.971 161.285 385.223 161.294 385.475 161.32C385.519 161.312 385.57 161.32 385.614 161.329C385.858 161.345 386.11 161.372 386.343 161.407C386.395 161.415 386.457 161.424 386.509 161.434C386.717 161.469 386.926 161.512 387.125 161.564C387.177 161.572 387.228 161.581 387.282 161.599C387.534 161.659 387.777 161.729 388.02 161.807C388.245 161.878 388.48 161.964 388.697 162.051C389.01 162.173 389.314 162.32 389.609 162.477C389.774 162.555 389.939 162.642 390.095 162.737C390.374 162.894 390.642 163.068 390.895 163.258C390.903 163.25 390.903 163.258 390.903 163.258L391.459 163.684C391.485 163.702 391.511 163.719 391.529 163.736C391.676 163.849 391.808 163.971 391.938 164.091C392.041 164.178 392.138 164.273 392.233 164.37C392.529 164.657 392.806 164.961 393.068 165.292C393.19 165.439 393.302 165.587 393.407 165.734C393.859 166.35 394.241 167.02 394.545 167.732C394.632 167.924 394.71 168.123 394.789 168.323C394.789 168.332 394.797 168.34 394.797 168.35C394.919 168.671 395.014 169.001 395.101 169.331C395.145 169.497 395.18 169.654 395.215 169.817C395.241 169.948 395.266 170.069 395.285 170.2C395.31 170.33 395.328 170.46 395.345 170.59C395.371 170.747 395.388 170.903 395.397 171.059C395.413 171.19 395.423 171.328 395.423 171.459C395.433 171.642 395.441 171.832 395.441 172.015Z" fill="#ec4b54"/>
	<path d="M395.445 319.944V321.504C395.445 327.688 390.64 332.702 384.715 332.702H119.782C113.857 332.702 109.053 327.688 109.053 321.504V319.944L245.321 230.289C249.551 227.505 254.938 227.505 259.169 230.289L395.445 319.944Z" fill="#ec4b54"/>
	<path d="M395.445 320.481V321.976C395.445 327.9 390.64 332.704 384.715 332.704H119.782C113.857 332.704 109.053 327.899 109.053 321.976V320.481L245.321 234.59C249.551 231.924 254.938 231.924 259.169 234.59L395.445 320.481Z" fill="#ec4b54"/>
	<path d="M238.802 110.016H159.072C156.51 110.016 154.414 107.921 154.414 105.36V103.38C154.414 100.819 156.51 98.7236 159.072 98.7236H238.802C241.364 98.7236 243.458 100.819 243.458 103.38V105.36C243.458 107.92 241.364 110.016 238.802 110.016Z" fill="#ec4b54"/>
	<path opacity="0.1" d="M161.808 52.8232L67.5625 65.3987L90.4113 82.7293L90.7695 114.627L110.46 97.9031L121.524 106.246L161.808 52.8232Z" fill="#ec4b54"/>
	<path d="M92.827 112.694L92.3047 66.1003L163.866 50.8906L92.827 112.694Z" fill="white"/>
	<path d="M92.6232 80.914C92.9853 80.732 163.865 50.8906 163.865 50.8906L69.6191 63.466L92.6232 80.914Z" fill="#ec4b54"/>
	<path d="M100.435 86.8608L92.8262 112.694L125.462 84.9736L100.435 86.8608Z" fill="#ec4b54"/>
	<path d="M100.436 86.861L123.581 104.312L163.866 50.8906L100.436 86.861Z" fill="#ec4b54"/>
	<path opacity="0.1" d="M420.458 177.465C420.35 175.776 418.881 174.483 417.193 174.591L298.645 182.126C296.958 182.233 295.664 183.702 295.772 185.391L298.833 233.545C298.941 235.234 300.41 236.527 302.097 236.42L420.645 228.885C422.333 228.777 423.627 227.308 423.519 225.621L420.458 177.465Z" fill="#ec4b54"/>
	<path d="M423.641 224.457L305.093 231.992C303.406 232.1 301.937 230.806 301.829 229.119L298.768 180.964C298.66 179.276 299.954 177.808 301.641 177.7L420.19 170.164C421.877 170.057 423.346 171.351 423.454 173.038L426.515 221.193C426.623 222.88 425.33 224.349 423.641 224.457Z" fill="white"/>
	<path d="M411.099 184.641L359.368 187.929C358.033 188.014 356.871 186.99 356.787 185.656L356.778 185.534C356.693 184.199 357.717 183.037 359.051 182.953L410.782 179.665C412.117 179.58 413.279 180.603 413.363 181.938L413.371 182.06C413.456 183.394 412.433 184.557 411.099 184.641Z" fill="#ec4b54"/>
	<path d="M360.043 198.565L360.043 198.565C358.83 198.643 357.772 197.711 357.695 196.497L357.695 196.496L357.687 196.375C357.687 196.375 357.687 196.375 357.687 196.375C357.609 195.162 358.541 194.104 359.754 194.028L359.755 194.027L411.486 190.74L411.486 190.74C412.699 190.662 413.757 191.594 413.834 192.807L413.834 192.808L413.842 192.929C413.842 192.929 413.842 192.93 413.842 192.93C413.919 194.143 412.989 195.199 411.774 195.277L360.043 198.565Z" stroke="#ec4b54" stroke-width="0.438701"/>
	<path d="M412.464 206.13L412.464 206.13L360.733 209.418L360.733 209.418C359.519 209.495 358.461 208.564 358.385 207.35L358.385 207.349L358.376 207.228C358.376 207.228 358.376 207.228 358.376 207.227C358.299 206.014 359.231 204.956 360.444 204.88L360.444 204.88L412.175 201.592L412.175 201.592C413.389 201.514 414.447 202.446 414.523 203.66L414.523 203.661L414.532 203.782C414.532 203.782 414.532 203.782 414.532 203.782C414.609 204.996 413.677 206.053 412.464 206.13Z" stroke="#ec4b54" stroke-width="0.438701"/>
	<path d="M361.424 220.271L361.424 220.271C360.21 220.349 359.152 219.417 359.076 218.204L359.076 218.202L359.068 218.081C359.068 218.081 359.068 218.081 359.068 218.081C358.99 216.868 359.922 215.81 361.135 215.734L361.135 215.734L412.867 212.446L412.867 212.446C414.08 212.368 415.138 213.3 415.214 214.513L415.215 214.514L415.223 214.635C415.223 214.635 415.223 214.635 415.223 214.636C415.299 215.849 414.369 216.905 413.155 216.983L361.424 220.271Z" stroke="#ec4b54" stroke-width="0.438701"/>
	<path d="M344.454 219.407C353.371 210.49 353.371 196.033 344.454 187.117C335.537 178.2 321.081 178.2 312.164 187.117C303.248 196.033 303.248 210.49 312.164 219.407C321.081 228.323 335.537 228.323 344.454 219.407Z" fill="#ec4b54"/>
	<path d="M340.332 217.32C339.158 218.353 337.847 219.235 336.426 219.94C335.706 220.299 334.958 220.612 334.187 220.871C333.37 221.151 332.525 221.369 331.658 221.529C330.954 221.661 330.23 221.75 329.496 221.796C328.761 221.843 328.032 221.845 327.314 221.805C323.962 221.62 320.826 220.516 318.18 218.728C319.352 216.189 321.517 214.174 324.198 213.225H324.201C324.203 213.222 324.205 213.222 324.208 213.222C324.667 213.058 325.144 212.927 325.634 212.831C325.653 212.826 325.673 212.823 325.692 212.819C326.122 212.733 326.562 212.677 327.012 212.649L330.804 212.409C331.252 212.381 331.696 212.381 332.133 212.41C332.152 212.409 332.172 212.411 332.193 212.416C332.691 212.448 333.18 212.518 333.659 212.623H333.663V212.626C336.443 213.222 338.849 214.949 340.332 217.32Z" fill="#ec4b54"/>
	<path d="M338.429 194.763L339.206 206.979C339.377 209.671 337.337 211.991 334.645 212.162L323.162 212.892C320.474 213.062 318.153 211.019 317.981 208.328L317.204 196.111C316.514 185.262 327.158 185.077 327.158 185.077C327.158 185.077 329.912 184.776 332.703 185.92C335.2 186.942 337.726 189.128 338.328 193.729C338.372 194.06 338.405 194.406 338.429 194.763Z" fill="#ec4b54"/>
	<path d="M331.821 210.537L331.821 210.537L332.049 214.129C332.049 214.129 332.049 214.129 332.049 214.129C332.135 215.476 330.887 216.733 329.18 216.842C327.473 216.951 326.076 215.861 325.99 214.515L325.99 214.515L325.762 210.923L325.762 210.922C325.726 210.363 325.917 209.827 326.277 209.375L326.277 209.375L326.278 209.373C326.361 209.268 326.452 209.168 326.553 209.075L326.553 209.075L326.556 209.073C326.747 208.892 326.971 208.733 327.219 208.603L327.219 208.603L327.219 208.602C327.633 208.383 328.114 208.242 328.632 208.21C329.15 208.177 329.645 208.254 330.083 208.421L330.084 208.421C330.347 208.52 330.587 208.648 330.8 208.803L330.807 208.809L330.815 208.813C330.819 208.816 330.827 208.821 330.834 208.827L330.835 208.827C330.935 208.902 331.029 208.981 331.115 209.067L331.115 209.067L331.116 209.068C331.53 209.47 331.786 209.979 331.821 210.537Z" fill="white" stroke="#EEEEEE" stroke-width="0.5"/>
	<path d="M336.898 197.638L337.231 202.869C337.465 206.545 335.316 209.847 332.12 211.257L332.208 212.637C331.315 213.031 330.34 213.278 329.313 213.342L328.611 213.387C327.583 213.453 326.585 213.331 325.649 213.052L325.561 211.673C322.213 210.679 319.661 207.675 319.429 204.001L319.097 198.769C318.951 196.313 319.871 194.026 321.452 192.365C322.891 190.852 324.873 189.856 327.106 189.714L327.807 189.67C329.812 189.542 331.706 190.125 333.242 191.197C333.242 191.197 333.242 191.197 333.243 191.197C335.298 192.637 336.715 194.956 336.898 197.638Z" fill="white"/>
	<path d="M337.153 202.875L337.153 202.875C337.266 204.654 336.814 206.343 335.96 207.767L335.954 207.772L335.95 207.78C335.748 208.11 335.526 208.425 335.286 208.727C334.815 209.311 334.271 209.833 333.663 210.277C333.174 210.633 332.648 210.94 332.086 211.19C331.201 211.581 330.233 211.824 329.216 211.889L328.516 211.934C327.498 211.999 326.507 211.881 325.583 211.604L325.583 211.603C322.262 210.618 319.733 207.641 319.501 203.997L319.427 204.002L319.501 203.997L319.086 197.46C319.086 197.46 319.086 197.46 319.086 197.46C319.08 197.37 319.077 197.281 319.074 197.189L319.074 197.189C318.987 194.714 319.981 192.43 321.642 190.809L321.643 190.809C321.904 190.554 322.183 190.314 322.478 190.09C323.754 189.131 325.314 188.518 327.02 188.409L327.02 188.409L327.72 188.365C329.638 188.242 331.455 188.778 332.949 189.775L332.949 189.775C333.744 190.305 334.448 190.963 335.025 191.727L335.026 191.727C335.264 192.039 335.478 192.367 335.672 192.71C336.277 193.781 336.652 194.997 336.736 196.303C336.736 196.303 336.736 196.303 336.736 196.303L337.153 202.875ZM336.014 207.819L335.991 207.796L335.991 207.796L336.014 207.819Z" fill="white" stroke="#EEEEEE" stroke-width="0.15"/>
	<path d="M340.456 199.542C340.577 201.434 339.14 203.065 337.248 203.186L336.812 196.335C337.287 196.305 337.747 196.373 338.168 196.522C338.172 196.523 338.174 196.524 338.174 196.524C339.431 196.968 340.367 198.128 340.456 199.542Z" fill="white"/>
	<path d="M339.15 199.625C339.225 200.795 338.335 201.806 337.165 201.881L336.895 197.639C338.067 197.565 339.076 198.454 339.15 199.625Z" fill="white"/>
	<path d="M333.661 212.62V212.623L331.657 221.528C330.952 221.659 330.228 221.749 329.495 221.795C328.76 221.841 328.031 221.844 327.313 221.804L324.197 213.224V213.221L326.008 213.106L326.077 213.168L329.121 215.94L331.794 212.805L331.854 212.735L333.661 212.62Z" fill="#ec4b54"/>
	<path d="M319.011 197.465L319.446 204.315C317.556 204.436 315.924 203 315.804 201.107C315.7 199.48 316.748 198.046 318.248 197.601C318.299 197.585 318.353 197.57 318.406 197.559C318.434 197.553 318.462 197.547 318.491 197.542C318.661 197.503 318.833 197.476 319.011 197.465Z" fill="white"/>
	<path d="M317.108 201.024C317.182 202.194 318.192 203.083 319.364 203.009L319.094 198.768C317.923 198.842 317.034 199.853 317.108 201.024Z" fill="white"/>
	<path d="M336.424 219.939C335.705 220.299 334.957 220.612 334.185 220.871L334.135 220.085L336.424 219.939Z" fill="#ec4b54"/>
	<path opacity="0.2" d="M329.117 215.94L331.776 217.582L333.658 212.618L329.117 215.94Z" fill="#ec4b54"/>
	<path d="M333.658 212.618L331.722 217.417L329.117 215.94L331.849 212.733L332.206 212.317L333.658 212.618Z" fill="#EEEEEE"/>
	<path opacity="0.2" d="M324.197 213.221L326.667 217.908L329.119 215.94L324.197 213.221Z" fill="#ec4b54"/>
	<path d="M329.119 215.94L326.726 217.735L324.197 213.22L325.6 212.737L326.006 213.106L329.119 215.94Z" fill="#EEEEEE"/>
	<path fill-rule="evenodd" clip-rule="evenodd" d="M332.766 191.487C333.475 193.094 335.005 194.227 338.066 193.81C337.465 189.208 334.937 187.022 332.44 186C332.41 186.182 332.38 186.376 332.352 186.58C330.874 186.297 328.464 186.309 324.569 186.965C312.625 188.976 318.406 204.654 318.349 200.699C318.29 196.745 324.425 193.968 328.383 193.716C330.311 193.593 331.762 192.559 332.766 191.487Z" fill="#94B1A0"/>
	<path opacity="0.1" d="M469.314 246.436C482.693 233.056 482.693 211.364 469.314 197.984C455.934 184.605 434.242 184.605 420.862 197.984C407.483 211.364 407.483 233.056 420.862 246.436C434.242 259.815 455.934 259.815 469.314 246.436Z" fill="#ec4b54"/>
	<path d="M452.376 252.378C471.297 252.378 486.636 237.039 486.636 218.117C486.636 199.195 471.297 183.856 452.376 183.856C433.454 183.856 418.115 199.195 418.115 218.117C418.115 237.039 433.454 252.378 452.376 252.378Z" fill="#ec4b54"/>
	<path d="M458.479 208.19L459.29 205.5L465.793 205.962L460.793 223.357C460.483 224.457 460.315 225.188 460.29 225.55C460.263 225.926 460.336 226.229 460.511 226.456C460.684 226.682 460.902 226.806 461.165 226.824C462.053 226.887 463.239 226.39 464.725 225.331C466.212 224.274 467.547 222.784 468.733 220.863C469.917 218.941 470.594 216.799 470.762 214.434C470.902 212.463 470.661 210.58 470.038 208.787C469.415 206.995 468.443 205.406 467.121 204.025C465.8 202.643 464.126 201.517 462.101 200.647C460.074 199.776 457.747 199.248 455.12 199.061C452.443 198.87 449.963 199.044 447.68 199.583C445.397 200.122 443.363 200.985 441.579 202.17C439.795 203.354 438.267 204.868 436.998 206.708C435.878 208.311 434.982 210.114 434.311 212.112C433.64 214.112 433.23 216.17 433.079 218.287C432.877 221.112 433.257 223.735 434.214 226.154C435.172 228.574 436.668 230.654 438.698 232.39C440.729 234.128 443.238 235.436 446.229 236.318C449.22 237.199 452.643 237.578 456.498 237.458C459.562 237.312 462.185 236.807 464.368 235.939C466.55 235.07 468.439 233.768 470.031 232.033L475.278 232.407C474.299 234.103 473.075 235.593 471.606 236.874C470.136 238.157 468.448 239.203 466.542 240.018C464.635 240.831 462.524 241.403 460.206 241.733C457.888 242.064 455.383 242.132 452.689 241.94C448.649 241.653 445.05 240.865 441.89 239.575C438.729 238.286 436.116 236.565 434.049 234.412C431.982 232.26 430.481 229.759 429.546 226.912C428.609 224.064 428.26 220.966 428.498 217.615C428.747 214.117 429.562 210.891 430.945 207.935C432.327 204.98 434.195 202.459 436.546 200.374C438.897 198.289 441.699 196.726 444.951 195.686C448.202 194.647 451.733 194.262 455.543 194.534C458.663 194.756 461.493 195.416 464.03 196.511C466.568 197.607 468.705 199.076 470.438 200.916C472.173 202.756 473.445 204.881 474.256 207.291C475.066 209.699 475.372 212.318 475.17 215.142C475.013 217.342 474.466 219.469 473.527 221.525C472.589 223.579 471.325 225.395 469.735 226.974C468.146 228.553 466.323 229.759 464.266 230.595C462.208 231.431 460.031 231.767 457.733 231.603C456.403 231.508 455.385 231.21 454.677 230.704C453.97 230.2 453.529 229.447 453.353 228.444C451.824 229.755 450.118 230.529 448.236 230.766C446.354 231.004 444.567 230.703 442.878 229.864C441.189 229.025 439.866 227.723 438.911 225.954C437.956 224.187 437.565 222.063 437.742 219.583C437.925 217.005 438.66 214.506 439.946 212.089C441.233 209.673 442.954 207.74 445.112 206.292C447.27 204.846 449.638 204.213 452.216 204.396C455.169 204.612 457.258 205.875 458.479 208.19ZM444.097 219.992C443.957 221.962 444.259 223.502 445.005 224.611C445.752 225.72 446.791 226.322 448.121 226.418C449.664 226.527 451.067 226.007 452.329 224.861C453.591 223.712 454.592 222.22 455.334 220.382C456.075 218.545 456.509 216.748 456.634 214.991C456.695 214.121 456.649 213.329 456.494 212.617C456.338 211.905 456.078 211.272 455.714 210.717C455.348 210.164 454.892 209.731 454.346 209.419C453.798 209.108 453.164 208.926 452.441 208.874C450.996 208.772 449.654 209.241 448.417 210.284C447.179 211.326 446.183 212.724 445.432 214.478C444.678 216.232 444.234 218.069 444.097 219.992Z" fill="white"/>
	<path d="M351.68 28.1799L355.382 26.2335C356.221 25.7924 357.201 26.5052 357.042 27.4392L356.335 31.5618C356.272 31.9328 356.393 32.3109 356.664 32.5742L359.659 35.4939C360.338 36.1549 359.963 37.3087 359.025 37.4446L354.885 38.0467C354.513 38.1013 354.191 38.3352 354.024 38.6727L352.173 42.4242C351.753 43.2742 350.541 43.2742 350.121 42.4242L348.27 38.6727C348.103 38.3352 347.781 38.1013 347.409 38.0467L343.269 37.4446C342.331 37.3087 341.957 36.1563 342.635 35.4939L345.63 32.5742C345.899 32.3109 346.023 31.9328 345.96 31.5618L345.252 27.4392C345.093 26.5052 346.073 25.7924 346.912 26.2335L350.614 28.1799C350.949 28.3564 351.347 28.3564 351.68 28.1799Z" fill="white"/>
	<path d="M50.4992 325.988C45.0715 325.988 40.6562 321.573 40.6562 316.145C40.6562 310.717 45.0715 306.301 50.4992 306.301C55.9269 306.301 60.3435 310.717 60.3435 316.145C60.3435 321.573 55.9269 325.988 50.4992 325.988ZM50.4992 309.008C46.5642 309.008 43.3645 312.209 43.3645 316.144C43.3645 320.079 46.5656 323.278 50.4992 323.278C54.4327 323.278 57.6353 320.077 57.6353 316.144C57.6353 312.21 54.4327 309.008 50.4992 309.008Z" fill="white"/>
	<path d="M54.0388 319.686C55.9965 317.729 55.9965 314.555 54.0388 312.597C52.081 310.639 48.9069 310.639 46.9491 312.597C44.9914 314.555 44.9914 317.729 46.9491 319.686C48.9069 321.644 52.081 321.644 54.0388 319.686Z" fill="white"/>
	<path d="M330.042 350.359C332.541 350.359 334.567 348.333 334.567 345.834C334.567 343.335 332.541 341.31 330.042 341.31C327.543 341.31 325.518 343.335 325.518 345.834C325.518 348.333 327.543 350.359 330.042 350.359Z" fill="white"/>
</svg>
